<svg width="18" height="18" viewBox="0 0 18 18" fill="none" xmlns="http://www.w3.org/2000/svg">
<g clip-path="url(#clip0_3142_11819)">
<path d="M10.2481 10.0965C10.2212 10.0965 10.1953 10.0872 10.1745 10.0676C10.1329 10.0276 10.132 9.96216 10.1719 9.92135C10.3313 9.75979 10.5116 9.64075 10.7083 9.56762C10.9605 9.47324 11.1511 9.48259 11.6113 9.5047C11.7067 9.50895 11.8133 9.51405 11.9355 9.51915C12.0611 9.52426 12.3783 9.53616 12.6088 9.53786C12.8342 9.53956 13.2189 9.53191 13.966 9.44433C14.5908 9.3712 15.0033 9.32274 15.5788 9.19859C15.5875 9.19689 16.4905 8.99707 17.4576 8.47414C17.5417 8.42907 17.7956 8.29132 17.7878 8.19779C17.7809 8.11191 17.5616 8.01412 17.4039 7.97586C16.416 8.02688 15.4393 8.13232 14.5007 8.28962C14.4114 8.30493 12.3003 8.6527 11.1407 8.43077C10.5419 8.31598 10.1632 7.98436 10.1476 7.96991C10.1311 7.95545 10.1173 7.9427 10.1103 7.9359C10.0687 7.89593 10.067 7.83131 10.1077 7.78964C10.1476 7.74883 10.2143 7.74713 10.2568 7.78709C10.2637 7.79305 10.275 7.8041 10.2897 7.81685C10.2932 7.82026 10.6433 8.12466 11.1815 8.22755C12.3029 8.44183 14.4444 8.08895 14.466 8.08555C15.4167 7.92654 16.4073 7.82026 17.4091 7.76839C17.4186 7.76839 17.429 7.76839 17.4386 7.77094C17.5278 7.79135 17.9759 7.90699 17.9984 8.18078C18.0166 8.40696 17.7306 8.56172 17.5599 8.6544C16.6534 9.14417 15.7772 9.3678 15.6247 9.39841C15.0389 9.52681 14.622 9.57528 13.9911 9.64925C13.2319 9.73853 12.8376 9.74618 12.6071 9.74363C12.3731 9.74193 12.0533 9.73003 11.9268 9.72493C11.8037 9.71983 11.6963 9.71472 11.6009 9.71047C11.1598 9.68921 10.9943 9.68071 10.7837 9.75979C10.6164 9.82271 10.4613 9.92475 10.3235 10.0642C10.3027 10.0855 10.275 10.0957 10.2481 10.0957V10.0965Z" fill="white"/>
<path d="M6.80819 8.97412C6.79086 8.97412 6.77352 8.96987 6.75706 8.96136C6.70593 8.9333 6.68773 8.87123 6.71546 8.82106C6.77959 8.70712 6.80559 8.59829 6.79259 8.4971C6.74579 8.12892 6.19981 7.89084 5.99355 7.80155L5.97535 7.7939C5.95109 7.7837 3.51238 6.69616 1.52432 3.84511C1.34492 3.58747 1.32066 3.37319 1.30853 3.27031L1.30593 3.24735C1.27386 2.99311 1.39952 2.78649 1.46625 2.6751C1.49312 2.63003 1.55118 2.61217 1.59971 2.63343C1.74098 2.69465 1.87877 2.76693 2.00963 2.84856C2.24536 2.99481 2.46375 3.17252 2.65701 3.37659C3.03313 3.77283 3.45518 4.12911 3.86423 4.47433C4.13202 4.70051 4.40848 4.93434 4.6702 5.17668C5.47357 5.92239 6.5898 6.56437 7.98681 7.0856C8.04141 7.10601 8.06828 7.16553 8.04748 7.2191C8.02668 7.27267 7.96601 7.29903 7.91142 7.27862C6.4884 6.74718 5.34964 6.09075 4.52547 5.32633C4.26722 5.0874 3.99249 4.85442 3.72644 4.62994C3.31305 4.28131 2.88667 3.92079 2.50708 3.52114C2.43515 3.44547 2.22976 3.22864 1.89697 3.02287C1.80164 2.96335 1.70198 2.90978 1.60058 2.86131C1.54772 2.9574 1.49745 3.08154 1.51565 3.22184L1.51825 3.2482C1.52865 3.34088 1.54858 3.51434 1.69851 3.72947C3.65364 6.53291 6.03775 7.59578 6.06115 7.60599L6.07935 7.61364C6.31507 7.71567 6.94078 7.98777 7.00232 8.47244C7.02051 8.61784 6.98672 8.7692 6.90005 8.9214C6.88099 8.95541 6.84459 8.97497 6.80819 8.97497V8.97412Z" fill="white"/>
<path d="M10.1249 7.83119C10.1188 7.83119 10.1128 7.83119 10.1067 7.82949C10.0495 7.81929 10.0114 7.76572 10.0209 7.7096C10.2948 6.18501 10.566 4.86959 10.8269 3.79992C11.2247 2.16734 11.2671 1.99643 11.2827 1.96412C11.2853 1.95902 11.5418 1.41653 11.6372 0.544969C11.6458 0.469292 11.6493 0.360454 11.5869 0.29328C11.5583 0.262669 11.5167 0.241412 11.4621 0.230358C11.4587 0.230358 11.4552 0.228657 11.4517 0.227807C11.3772 0.204849 11.307 0.200598 11.2429 0.214202C11.1666 0.231208 11.0401 0.352801 10.8676 0.57643C10.0209 1.67332 9.67512 3.05846 9.3406 4.39768C9.19847 4.96568 9.05201 5.55324 8.86828 6.11528C8.86222 6.13399 8.85528 6.1578 8.84748 6.18501C8.80068 6.34827 8.71402 6.65352 8.47223 6.93072C8.39337 7.02085 8.30497 7.10248 8.20791 7.17476C8.16111 7.20962 8.09524 7.20027 8.06058 7.15435C8.02505 7.10843 8.03458 7.04381 8.08138 7.0098C8.16631 6.94688 8.24431 6.8746 8.31277 6.79637C8.52423 6.55404 8.60049 6.28789 8.64556 6.12974C8.65422 6.09998 8.66116 6.07362 8.66809 6.05236C8.84922 5.49797 8.99481 4.91381 9.13607 4.34921C9.47579 2.98958 9.82678 1.58319 10.7003 0.452286C10.9187 0.169987 11.0626 0.0424418 11.1978 0.0126813C11.2975 -0.00942651 11.4032 -0.00347441 11.5107 0.028837C11.606 0.0492442 11.684 0.0909089 11.742 0.153831C11.8755 0.297532 11.8538 0.500753 11.846 0.567077C11.7464 1.47605 11.4838 2.02959 11.4725 2.05255C11.4578 2.09847 11.2975 2.75575 11.0314 3.84498C10.7705 4.91381 10.5002 6.22497 10.2272 7.74531C10.2185 7.79548 10.1734 7.83034 10.1232 7.83034L10.1249 7.83119Z" fill="white"/>
<path d="M0.842847 13.9074C0.436395 13.9074 0.13394 13.7646 0.0100111 13.5044C-0.0081882 13.4661 -0.00125513 13.4219 0.0282104 13.3913C1.03264 12.3156 2.35339 11.5912 3.63081 10.8914C4.67077 10.3217 5.7454 9.73243 6.6415 8.95696C6.68483 8.91954 6.75156 8.92294 6.79056 8.96631C6.82869 9.00882 6.82522 9.0743 6.78103 9.11256C5.86759 9.90249 4.78257 10.4968 3.73307 11.0725C2.49205 11.7527 1.2103 12.4551 0.234469 13.4763C0.433795 13.7595 0.956376 13.7042 1.1193 13.6795C2.50419 13.4661 3.73307 12.7034 4.92123 11.9662C5.42561 11.6533 5.94646 11.3301 6.4751 11.0504L6.50717 11.0334C6.64583 10.9586 6.93442 10.8038 7.32787 10.7341C7.54367 10.6958 7.76552 10.6865 7.98738 10.706C8.04545 10.7111 8.08791 10.7613 8.08271 10.8183C8.07751 10.8752 8.02638 10.9169 7.96832 10.9118C7.76552 10.8939 7.56186 10.9033 7.36427 10.9373C7.00462 11.0011 6.74636 11.1397 6.60683 11.2145L6.57303 11.2324C6.05045 11.5087 5.53221 11.8301 5.03129 12.1405C3.82494 12.8887 2.57785 13.6625 1.14964 13.8827C1.04044 13.8998 0.93731 13.9074 0.83938 13.9074H0.842847Z" fill="white"/>
<path d="M11.76 17.9999C11.4757 17.9999 11.1637 17.8137 10.8882 17.4694C9.99552 16.3529 9.62027 14.9533 9.25715 13.5988C9.10636 13.0367 8.95036 12.4551 8.7597 11.9033C8.75277 11.882 8.74497 11.8565 8.73544 11.8268C8.68777 11.6686 8.60717 11.405 8.39138 11.1652C8.32118 11.0879 8.24232 11.0173 8.15652 10.9552C8.10973 10.922 8.09933 10.8566 8.13313 10.8107C8.16779 10.7647 8.23365 10.7545 8.28045 10.7877C8.37838 10.8583 8.46938 10.9382 8.54911 11.0275C8.7961 11.3013 8.88796 11.604 8.93736 11.7664C8.94516 11.7936 8.95296 11.8166 8.95903 11.8353C9.15229 12.3939 9.30915 12.9789 9.46081 13.5444C9.81873 14.8776 10.1879 16.2568 11.0537 17.3393C11.1559 17.4668 11.5 17.8562 11.8423 17.7823C11.838 16.3827 11.3873 15.0111 10.9514 13.6838C10.5831 12.5614 10.2018 11.4008 10.0822 10.212C10.0761 10.1551 10.1186 10.1049 10.1767 10.099C10.2347 10.093 10.2858 10.1347 10.2919 10.1916C10.4098 11.3582 10.7868 12.5079 11.1525 13.62C11.6014 14.9865 12.065 16.3997 12.0529 17.8588C12.0529 17.9005 12.0269 17.9379 11.987 17.954C11.9143 17.9829 11.838 17.9974 11.7591 17.9974L11.76 17.9999Z" fill="white"/>
<path d="M11.0421 1.43948C10.9901 1.43948 10.9407 1.42588 10.8991 1.39952C10.7518 1.30514 10.7674 1.09936 10.8133 0.984573C10.8627 0.86128 10.9832 0.733735 11.1305 0.746489C11.2007 0.752441 11.2466 0.788154 11.2648 0.801759C11.3862 0.894441 11.4503 1.10191 11.3524 1.26177C11.3012 1.3451 11.212 1.40887 11.114 1.43098C11.0898 1.43608 11.0655 1.43948 11.0421 1.43948ZM11.0144 1.22606C11.0256 1.23286 11.0447 1.23456 11.0664 1.22946C11.108 1.22011 11.1504 1.19035 11.1721 1.15548C11.2137 1.08746 11.1773 0.997328 11.1348 0.964166C11.1279 0.959064 11.1201 0.952262 11.1123 0.952262C11.088 0.948861 11.0334 1.00073 11.0101 1.06025C10.9867 1.11892 10.9841 1.20735 11.0144 1.22691V1.22606Z" fill="white"/>
<path d="M10.7775 2.32475C10.7342 2.32475 10.6909 2.31284 10.6554 2.28903C10.599 2.25162 10.5635 2.187 10.5592 2.11217C10.554 2.03139 10.5852 1.95402 10.6424 1.9047C10.6961 1.85878 10.7741 1.83752 10.8503 1.84858C10.9136 1.85793 10.9647 1.88769 10.9925 1.93276C11.0098 1.95912 11.0167 1.99228 11.015 2.0399C11.0124 2.10707 11.0089 2.21931 10.911 2.28393C10.8711 2.31029 10.8243 2.3239 10.7784 2.3239L10.7775 2.32475ZM10.7732 2.11727C10.7775 2.11727 10.7871 2.11727 10.7914 2.11387C10.7983 2.10707 10.8009 2.07646 10.8018 2.0535C10.7931 2.0535 10.7845 2.0569 10.7793 2.06115C10.7663 2.07306 10.7645 2.10707 10.7723 2.11812L10.7732 2.11727Z" fill="white"/>
<path d="M10.318 3.86367C10.2729 3.86367 10.2279 3.85262 10.188 3.82966C10.078 3.76674 10.0502 3.63919 10.0606 3.54906C10.0736 3.43172 10.1542 3.3637 10.2071 3.31948C10.2452 3.28717 10.292 3.25401 10.3553 3.25061C10.4367 3.2455 10.5182 3.29482 10.5572 3.3739C10.5884 3.43767 10.5884 3.49464 10.5841 3.54736C10.5763 3.63834 10.565 3.76249 10.4506 3.82881C10.4107 3.85177 10.3639 3.86367 10.318 3.86367ZM10.2937 3.6511C10.3093 3.6596 10.331 3.6579 10.3431 3.6511C10.3648 3.63834 10.37 3.57797 10.3743 3.52865C10.3778 3.49124 10.3743 3.47849 10.3683 3.46403C10.3683 3.46233 10.3665 3.46148 10.3657 3.45978C10.3622 3.46233 10.357 3.46573 10.3492 3.47253C10.3015 3.51335 10.2738 3.53716 10.2703 3.57202C10.2686 3.58392 10.2695 3.63664 10.2937 3.65025V3.6511Z" fill="white"/>
<path d="M9.41961 6.62054C9.38407 6.62054 9.34941 6.61374 9.31648 6.59674C9.22808 6.55167 9.17348 6.44368 9.16828 6.30678C9.16395 6.18264 9.20381 6.02363 9.32774 5.94966C9.43434 5.88589 9.6068 5.88503 9.69433 5.98537C9.72726 6.02278 9.73766 6.0636 9.74459 6.10271C9.76539 6.2192 9.79313 6.37906 9.6744 6.5049C9.61287 6.57038 9.51407 6.62139 9.41961 6.62139V6.62054ZM9.41354 6.41307C9.42827 6.41817 9.4846 6.40032 9.52014 6.3629C9.56433 6.31614 9.55567 6.24301 9.53747 6.13672C9.53487 6.12142 9.53314 6.11632 9.53227 6.11632C9.52274 6.10951 9.46727 6.10781 9.43694 6.12567C9.40314 6.14608 9.37887 6.2141 9.37801 6.28723C9.37801 6.3663 9.40401 6.40712 9.41267 6.41307H9.41354Z" fill="white"/>
<path d="M9.44441 7.27098C9.42794 7.27098 9.41147 7.26758 9.39587 7.25908L9.06482 7.08902C9.01282 7.06266 8.99289 7.00059 9.01975 6.94957C9.04662 6.8994 9.10988 6.879 9.16188 6.90535L9.49294 7.07541C9.54494 7.10177 9.56487 7.16385 9.538 7.21486C9.51894 7.25058 9.48254 7.27013 9.44441 7.27013V7.27098Z" fill="white"/>
<path d="M9.15171 8.19695C9.14391 8.19695 9.13611 8.19695 9.12831 8.1944C8.96365 8.15869 8.82239 8.04815 8.74873 7.9002C8.7236 7.84918 8.74526 7.78711 8.79813 7.76245C8.85012 7.73779 8.91339 7.75905 8.93852 7.81091C8.98359 7.9019 9.07372 7.97162 9.17425 7.99373C9.23144 8.00648 9.26698 8.06175 9.25398 8.11702C9.24271 8.16549 9.19938 8.1978 9.15085 8.1978L9.15171 8.19695Z" fill="white"/>
<path d="M7.94548 8.71651C7.91342 8.71651 7.88222 8.70291 7.86142 8.6757C7.82589 8.63063 7.83542 8.56516 7.88135 8.53115C7.93942 8.48778 7.98188 8.42571 8.00095 8.35684C8.01655 8.30157 8.07375 8.26926 8.13008 8.28456C8.18641 8.29987 8.21934 8.35599 8.20374 8.41126C8.17254 8.52349 8.10321 8.62468 8.00875 8.69526C7.98968 8.70971 7.96715 8.71651 7.94462 8.71651H7.94548Z" fill="white"/>
<path d="M7.21034 7.94192C7.16007 7.94192 7.11587 7.90706 7.10721 7.85689C7.09681 7.80077 7.13407 7.7472 7.19214 7.73615C7.25974 7.72425 7.3256 7.68768 7.37066 7.63752C7.40966 7.595 7.47553 7.59075 7.51973 7.62901C7.56306 7.66728 7.56739 7.7319 7.52839 7.77526C7.45126 7.86114 7.34466 7.91981 7.23027 7.94022C7.2242 7.94107 7.21727 7.94192 7.2112 7.94192H7.21034Z" fill="white"/>
<path d="M9.30284 9.22316C9.25518 9.22316 9.21184 9.1917 9.20058 9.14408C9.18065 9.06075 9.18325 8.97402 9.21011 8.89324C9.22744 8.83882 9.28724 8.80906 9.34271 8.82607C9.39817 8.84308 9.4285 8.90175 9.41117 8.95617C9.39644 9.00038 9.3947 9.05055 9.40597 9.09561C9.41984 9.15088 9.38517 9.207 9.32797 9.22061C9.31931 9.22231 9.31151 9.22316 9.30284 9.22316Z" fill="white"/>
<path d="M10.6582 9.1968C10.6088 9.1968 10.5646 9.16194 10.555 9.11262L10.5056 8.85243C10.4952 8.79631 10.5325 8.74274 10.5897 8.73169C10.6469 8.72148 10.7015 8.75805 10.7128 8.81417L10.7622 9.07436C10.7726 9.13048 10.7353 9.18405 10.6781 9.1951C10.672 9.19595 10.6651 9.1968 10.659 9.1968H10.6582Z" fill="white"/>
<path d="M8.47753 9.6085C8.47753 9.6085 8.4706 9.6085 8.46713 9.6085C8.34754 9.59745 8.24701 9.50137 8.23141 9.38487C8.22361 9.3279 8.26521 9.27689 8.32241 9.26923C8.3796 9.26158 8.43247 9.3024 8.44027 9.35851C8.44287 9.37892 8.4654 9.40103 8.48707 9.40273C8.54513 9.40783 8.5876 9.45885 8.5824 9.51497C8.5772 9.56854 8.53127 9.6085 8.47753 9.6085Z" fill="white"/>
<path d="M8.34721 10.3236C8.33768 10.3236 8.32728 10.3219 8.31774 10.3193C8.17821 10.2794 8.07595 10.1476 8.07422 10.0047C8.07422 9.94776 8.12015 9.901 8.17821 9.90015H8.17908C8.23715 9.90015 8.28394 9.94606 8.28481 10.0022C8.28481 10.0541 8.32554 10.1059 8.37667 10.1204C8.43214 10.1365 8.46507 10.1935 8.4486 10.2488C8.43561 10.2938 8.39314 10.3236 8.34721 10.3236Z" fill="white"/>
<path d="M4.27508 11.9339C4.23954 11.9339 4.20488 11.9262 4.17195 11.9101C4.08355 11.865 4.02808 11.757 4.02375 11.6193C4.01942 11.4951 4.05928 11.3361 4.18321 11.2622C4.28981 11.1984 4.46227 11.1975 4.5498 11.2979C4.58273 11.3353 4.59313 11.3761 4.60006 11.4152C4.62 11.5317 4.6486 11.6916 4.52987 11.8174C4.46747 11.8829 4.36954 11.9339 4.27508 11.9339ZM4.26901 11.7264C4.28374 11.7315 4.34007 11.7137 4.37561 11.6763C4.4198 11.6295 4.41114 11.5564 4.39294 11.4501C4.39034 11.4348 4.3886 11.4297 4.38774 11.4288C4.37821 11.422 4.32274 11.4203 4.29241 11.4382C4.25861 11.4586 4.23348 11.5266 4.23348 11.5997C4.23348 11.678 4.25948 11.7196 4.26814 11.7256L4.26901 11.7264Z" fill="white"/>
<path d="M16.9235 8.54458C16.8784 8.54458 16.8333 8.53353 16.7935 8.51057C16.6834 8.44765 16.6557 8.3201 16.6661 8.22997C16.6791 8.11263 16.7597 8.0446 16.8126 8.00039C16.8507 7.96808 16.8975 7.93491 16.9607 7.93151C17.0431 7.92641 17.1237 7.97573 17.1627 8.05481C17.1939 8.11858 17.1939 8.17555 17.1895 8.22742C17.1817 8.3184 17.1705 8.44254 17.0561 8.50972C17.0162 8.53268 16.9694 8.54458 16.9235 8.54458ZM16.8992 8.332C16.9148 8.34051 16.9365 8.33881 16.9486 8.332C16.9703 8.31925 16.9755 8.25888 16.9798 8.20956C16.9833 8.17215 16.9798 8.15939 16.9737 8.14494C16.9737 8.14324 16.972 8.14239 16.9711 8.14154C16.9677 8.14409 16.9625 8.14749 16.9547 8.15429C16.907 8.19511 16.8793 8.21892 16.8758 8.25378C16.8741 8.26568 16.8749 8.3184 16.8992 8.332Z" fill="white"/>
<path d="M16.2619 8.68485C16.2186 8.68485 16.1753 8.67295 16.1397 8.64914C16.0834 8.61173 16.0479 8.54711 16.0435 8.47228C16.0383 8.3915 16.0695 8.31412 16.1259 8.26481C16.1796 8.21889 16.2576 8.19763 16.3339 8.20869C16.3971 8.21804 16.4482 8.2478 16.476 8.29287C16.4933 8.32093 16.5002 8.35324 16.4985 8.4C16.4959 8.46718 16.4924 8.57942 16.3945 8.64404C16.3547 8.6704 16.3079 8.684 16.2619 8.684V8.68485ZM16.2576 8.47823C16.2619 8.47823 16.2715 8.47823 16.2758 8.47483C16.2827 8.46803 16.2853 8.43742 16.2862 8.41446C16.2775 8.41446 16.2689 8.41786 16.2637 8.42211C16.2507 8.43317 16.2498 8.46803 16.2567 8.47908L16.2576 8.47823Z" fill="white"/>
<path d="M14.947 9.06413C14.9019 9.06413 14.8568 9.05307 14.817 9.03011C14.706 8.96719 14.6792 8.83965 14.6896 8.74952C14.7026 8.63217 14.7832 8.56415 14.836 8.51908C14.8742 8.48677 14.921 8.45361 14.9842 8.45021C15.0665 8.44596 15.148 8.49443 15.1861 8.5735C15.2173 8.63728 15.2173 8.69425 15.213 8.74611C15.2052 8.8371 15.1939 8.96124 15.0795 9.02756C15.0397 9.05052 14.9929 9.06243 14.947 9.06243V9.06413ZM14.9227 8.85155C14.9383 8.86005 14.9608 8.85835 14.9721 8.85155C14.9938 8.8388 14.999 8.77843 15.0033 8.72911C15.0068 8.6917 15.0033 8.67894 14.9972 8.66449C14.9972 8.66279 14.9955 8.66193 14.9946 8.66108C14.9912 8.66364 14.986 8.66704 14.9782 8.67384C14.9305 8.71465 14.9036 8.73846 14.8993 8.77332C14.8976 8.78523 14.8984 8.83795 14.9227 8.85155Z" fill="white"/>
<path d="M3.58614 12.087C3.54281 12.087 3.49948 12.075 3.46395 12.0512C3.40761 12.0138 3.37208 11.9492 3.36775 11.8744C3.36255 11.7936 3.39375 11.7162 3.45008 11.6669C3.50381 11.621 3.58181 11.5997 3.65807 11.6108C3.72134 11.6201 3.77247 11.6499 3.8002 11.695C3.81753 11.7213 3.82447 11.7545 3.82273 11.8021C3.82013 11.8693 3.81667 11.9815 3.71874 12.0461C3.67887 12.0725 3.63207 12.0861 3.58614 12.0861V12.087ZM3.58181 11.8803C3.58614 11.8803 3.59567 11.8803 3.60001 11.8769C3.60694 11.8701 3.60954 11.8395 3.61127 11.8166C3.60261 11.8166 3.59394 11.82 3.58874 11.8242C3.57574 11.8361 3.57487 11.8701 3.58181 11.8812V11.8803Z" fill="white"/>
<path d="M2.11243 13.0716C2.06043 13.0716 2.01103 13.058 1.96943 13.0316C1.82211 12.9372 1.83771 12.7314 1.88364 12.6167C1.93303 12.4934 2.05263 12.3658 2.20082 12.3786C2.27016 12.3845 2.31695 12.4202 2.33429 12.4338C2.45562 12.5265 2.51975 12.734 2.42268 12.8939C2.37155 12.9772 2.28229 13.041 2.18436 13.0631C2.16009 13.0682 2.13583 13.0716 2.11243 13.0716ZM2.18089 12.5843C2.15489 12.5843 2.10376 12.6337 2.08036 12.6923C2.05696 12.751 2.05436 12.8394 2.08556 12.859C2.09683 12.8658 2.11589 12.8675 2.13756 12.8624C2.17916 12.853 2.22162 12.8233 2.24242 12.7884C2.28402 12.7204 2.24849 12.6294 2.20516 12.5971C2.19909 12.592 2.19043 12.5852 2.18263 12.5852C2.18263 12.5852 2.18176 12.5852 2.18089 12.5852V12.5843Z" fill="white"/>
<path d="M6.19055 7.41385C6.13855 7.41385 6.08916 7.40024 6.04756 7.37388C5.90023 7.2795 5.91583 7.07373 5.96176 6.95894C6.01116 6.83564 6.13249 6.7081 6.27895 6.72085C6.34828 6.72681 6.39508 6.76252 6.41241 6.77612C6.53374 6.86966 6.59787 7.07628 6.50081 7.23614C6.44968 7.31947 6.36041 7.38324 6.26248 7.40535C6.23822 7.41045 6.21395 7.41385 6.19055 7.41385ZM6.16282 7.20042C6.17409 7.20808 6.19315 7.20893 6.21482 7.20382C6.25642 7.19447 6.29888 7.16471 6.31968 7.12985C6.36128 7.06182 6.32488 6.97169 6.28242 6.93853C6.27635 6.93343 6.26768 6.92663 6.25988 6.92663C6.23302 6.92323 6.18102 6.97424 6.15762 7.03462C6.13422 7.09329 6.13162 7.18172 6.16282 7.20127V7.20042Z" fill="white"/>
<path d="M9.63587 11.5965C9.58387 11.5965 9.53447 11.5829 9.49287 11.5565C9.34554 11.4621 9.36114 11.2563 9.40707 11.1416C9.45647 11.0183 9.5752 10.8907 9.72426 10.9035C9.79359 10.9094 9.84039 10.9451 9.85772 10.9587C9.97905 11.0514 10.0432 11.2589 9.94612 11.4188C9.89499 11.5029 9.80573 11.5659 9.70693 11.588C9.68266 11.5931 9.6584 11.5965 9.635 11.5965H9.63587ZM9.60813 11.383C9.6194 11.3898 9.63847 11.3915 9.66013 11.3864C9.70173 11.3771 9.74419 11.3473 9.76586 11.3125C9.80746 11.2444 9.77106 11.1543 9.7286 11.1211C9.72253 11.116 9.713 11.1092 9.70606 11.1092C9.6844 11.1058 9.6272 11.1569 9.6038 11.2172C9.5804 11.2759 9.5778 11.3643 9.609 11.3839L9.60813 11.383Z" fill="white"/>
<path d="M11.0968 16.6853C11.0448 16.6853 10.9954 16.6717 10.9538 16.6454C10.8065 16.551 10.8221 16.3452 10.868 16.2304C10.9174 16.1071 11.0379 15.9796 11.1852 15.9923C11.2545 15.9983 11.3013 16.034 11.3187 16.0476C11.44 16.1403 11.5041 16.3478 11.4071 16.5076C11.3559 16.5909 11.2667 16.6547 11.1687 16.6768C11.1445 16.6819 11.1202 16.6853 11.0968 16.6853ZM11.0691 16.4719C11.0803 16.4796 11.0994 16.4804 11.1211 16.4753C11.1627 16.466 11.2051 16.4362 11.2259 16.4013C11.2675 16.3333 11.232 16.2423 11.1887 16.21C11.1826 16.2049 11.1739 16.1981 11.1661 16.1981C11.1427 16.1939 11.0873 16.2457 11.0639 16.3061C11.0405 16.3648 11.0379 16.4532 11.0691 16.4728V16.4719Z" fill="white"/>
<path d="M10.1813 14.1966C10.1458 14.1966 10.1111 14.1889 10.0782 14.1728C9.9898 14.1277 9.93433 14.0197 9.93 13.882C9.92567 13.7578 9.96553 13.5988 10.0895 13.5249C10.1961 13.4611 10.3685 13.4602 10.456 13.5606C10.489 13.598 10.4994 13.6388 10.5063 13.6779C10.5271 13.7944 10.5548 13.9543 10.4361 14.0801C10.3746 14.1456 10.2758 14.1966 10.1813 14.1966ZM10.1753 13.9891C10.19 13.9942 10.2463 13.9764 10.2819 13.9389C10.3261 13.8922 10.3174 13.8191 10.2992 13.7128C10.2966 13.6975 10.2949 13.6924 10.294 13.6915C10.2845 13.6847 10.229 13.683 10.1987 13.7009C10.1649 13.7213 10.1397 13.7893 10.1397 13.8624C10.1397 13.9406 10.1657 13.9823 10.1744 13.9883L10.1753 13.9891Z" fill="white"/>
<path d="M9.96114 13.2442C9.91781 13.2442 9.87448 13.2323 9.83895 13.2085C9.78261 13.1711 9.74708 13.1064 9.74275 13.0316C9.73755 12.9508 9.76875 12.8734 9.82508 12.8241C9.87881 12.7782 9.95681 12.757 10.0331 12.768C10.0963 12.7774 10.1475 12.8071 10.1752 12.8522C10.1925 12.8786 10.1995 12.9117 10.1977 12.9593C10.1951 13.0265 10.1917 13.1387 10.0937 13.2034C10.0539 13.2297 10.0071 13.2433 9.96114 13.2433V13.2442ZM9.95681 13.0367C9.96114 13.0367 9.97067 13.0367 9.97501 13.0333C9.98194 13.0265 9.98454 12.9959 9.98541 12.9729C9.97674 12.9729 9.96807 12.9763 9.96287 12.9806C9.94987 12.9925 9.94901 13.0265 9.95594 13.0376L9.95681 13.0367Z" fill="white"/>
<path d="M2.31661 4.08476C2.27328 4.08476 2.22995 4.07285 2.19441 4.04904C2.13808 4.01163 2.10255 3.94701 2.09822 3.87218C2.09302 3.7914 2.12422 3.71403 2.18055 3.66471C2.23428 3.61879 2.31228 3.59753 2.38854 3.60859C2.4518 3.61794 2.50207 3.6477 2.53067 3.69277C2.548 3.71998 2.55493 3.75314 2.5532 3.79991C2.5506 3.86708 2.54713 3.97932 2.4492 4.04394C2.40934 4.0703 2.36254 4.08391 2.31661 4.08391V4.08476ZM2.31228 3.87813C2.31748 3.87813 2.32614 3.87813 2.33048 3.87473C2.33741 3.86793 2.34001 3.83732 2.34088 3.81436C2.33221 3.81436 2.32354 3.81776 2.31834 3.82201C2.30534 3.83307 2.30448 3.86793 2.31141 3.87898L2.31228 3.87813Z" fill="white"/>
<path d="M2.83118 4.9053C2.77918 4.9053 2.72978 4.8917 2.68818 4.86534C2.54086 4.77096 2.55646 4.56518 2.60239 4.45039C2.65178 4.3271 2.77051 4.19955 2.91957 4.21231C2.98891 4.21826 3.0357 4.25397 3.05304 4.26758C3.17437 4.36026 3.2385 4.56773 3.14143 4.72759C3.0903 4.81092 3.00104 4.87469 2.90311 4.8968C2.87884 4.9019 2.85458 4.9053 2.83118 4.9053ZM2.89964 4.41808C2.87364 4.41808 2.82165 4.4674 2.79825 4.52607C2.77485 4.58474 2.77225 4.67317 2.80345 4.69273C2.81471 4.69953 2.83378 4.70123 2.85544 4.69613C2.89704 4.68678 2.93951 4.65702 2.96031 4.62215C3.00191 4.55413 2.96637 4.46315 2.92304 4.43084C2.91697 4.42573 2.90744 4.41893 2.90051 4.41893C2.90051 4.41893 2.89964 4.41893 2.89878 4.41893L2.89964 4.41808Z" fill="white"/>
<path d="M3.66712 5.71575C3.61512 5.71575 3.56572 5.70214 3.52412 5.67578C3.37679 5.5814 3.39239 5.37563 3.43832 5.26084C3.48772 5.13754 3.60818 5.01085 3.75551 5.02275C3.82571 5.0287 3.87164 5.06442 3.88984 5.07802C4.01117 5.1707 4.0753 5.37818 3.97737 5.53803C3.92624 5.62136 3.83698 5.68514 3.73905 5.70724C3.71478 5.71234 3.69052 5.71575 3.66712 5.71575ZM3.63938 5.50232C3.65065 5.50912 3.66972 5.51082 3.69138 5.50572C3.73298 5.49637 3.77545 5.46661 3.79711 5.43175C3.83871 5.36372 3.80231 5.27359 3.75985 5.24043C3.75291 5.23533 3.74511 5.22852 3.73731 5.22852C3.71305 5.22427 3.65845 5.27699 3.63505 5.33651C3.61165 5.39518 3.60905 5.48361 3.63938 5.50317V5.50232Z" fill="white"/>
</g>
<defs>
<clipPath id="clip0_3142_11819">
<rect width="18" height="18" fill="white"/>
</clipPath>
</defs>
</svg>
